<?xml version="1.0" encoding="UTF-8" standalone="no"?>
<!-- Generator: Adobe Illustrator 16.0.0, SVG Export Plug-In . SVG Version: 6.00 Build 0)  -->

<svg
   xmlns:dc="http://purl.org/dc/elements/1.1/"
   xmlns:cc="http://creativecommons.org/ns#"
   xmlns:rdf="http://www.w3.org/1999/02/22-rdf-syntax-ns#"
   xmlns:svg="http://www.w3.org/2000/svg"
   xmlns="http://www.w3.org/2000/svg"
   xmlns:xlink="http://www.w3.org/1999/xlink"
   xmlns:sodipodi="http://sodipodi.sourceforge.net/DTD/sodipodi-0.dtd"
   xmlns:inkscape="http://www.inkscape.org/namespaces/inkscape"
   version="1.1"
   x="0px"
   y="0px"
   width="96px"
   height="96px"
   viewBox="0 0 96 96"
   enable-background="new 0 0 96 96"
   xml:space="preserve"
   id="svg2"
   inkscape:version="0.48.3.1 r9886"
   sodipodi:docname="Copyright.svg"><metadata
   id="metadata24"><rdf:RDF><cc:Work
       rdf:about=""><dc:format>image/svg+xml</dc:format><dc:type
         rdf:resource="http://purl.org/dc/dcmitype/StillImage" /></cc:Work></rdf:RDF></metadata><defs
   id="defs22"><linearGradient
     inkscape:collect="always"
     id="linearGradient3769"><stop
       style="stop-color:#000000;stop-opacity:1;"
       offset="0"
       id="stop3771" /><stop
       style="stop-color:#000000;stop-opacity:0;"
       offset="1"
       id="stop3773" /></linearGradient><linearGradient
     inkscape:collect="always"
     xlink:href="#linearGradient3769"
     id="linearGradient3775"
     x1="1.458"
     y1="48"
     x2="94.542"
     y2="48"
     gradientUnits="userSpaceOnUse" /></defs><sodipodi:namedview
   pagecolor="#ffffff"
   bordercolor="#666666"
   borderopacity="1"
   objecttolerance="10"
   gridtolerance="10"
   guidetolerance="10"
   inkscape:pageopacity="0"
   inkscape:pageshadow="2"
   inkscape:window-width="736"
   inkscape:window-height="480"
   id="namedview20"
   showgrid="false"
   inkscape:zoom="2.4583333"
   inkscape:cx="48"
   inkscape:cy="48"
   inkscape:window-x="207"
   inkscape:window-y="138"
   inkscape:window-maximized="0"
   inkscape:current-layer="svg2" />
<g
   id="Layer_1"
   style="fill-opacity:1;fill:#ffffff">
	<g
   id="g5"
   style="fill-opacity:1;fill:#ffffff">
		<g
   id="g7"
   style="fill-opacity:1;fill:#ffffff">
			<g
   id="g9"
   style="fill-opacity:1;fill:#ffffff">
				<path
   d="M48,1.458C22.337,1.458,1.458,22.337,1.458,48S22.337,94.542,48,94.542S94.542,73.663,94.542,48S73.663,1.458,48,1.458z       M48,84.881c-20.336,0-36.881-16.545-36.881-36.881c0-20.336,16.545-36.881,36.881-36.881c20.336,0,36.881,16.545,36.881,36.881      C84.881,68.336,68.336,84.881,48,84.881z"
   id="path11"
   style="fill-opacity:1;fill:#ffffff" />
			</g>
		</g>
		<g
   id="g13"
   style="fill-opacity:1;fill:#ffffff">
			<g
   id="g15"
   style="fill-opacity:1;fill:#ffffff">
				<path
   d="M62.388,24.403c-1.021-0.533-4.897-2.272-11.898-2.272c-15.641,0-26.149,10.565-26.149,26.29      c0,15.46,9.715,25.449,24.75,25.449c6.253,0,10.894-1.244,13.151-2.408c0.625-0.322,0.948-1.03,0.782-1.713l-1.189-4.897      c-0.108-0.448-0.414-0.823-0.831-1.019c-0.417-0.194-0.9-0.192-1.314,0.008c-2.294,1.113-5.872,1.806-9.339,1.806      c-10.348,0-16.525-6.518-16.525-17.436c0-11.224,6.308-17.925,16.875-17.925c3.284,0,6.479,0.654,8.764,1.797      c0.399,0.202,0.868,0.214,1.279,0.04c0.411-0.176,0.725-0.524,0.857-0.952l1.539-4.967      C63.356,25.501,63.041,24.743,62.388,24.403z"
   id="path17"
   style="fill-opacity:1;fill:#ffffff" />
			</g>
		</g>
	</g>
</g>
<g
   id="Layer_2">
</g>
</svg>