<?xml version="1.0" encoding="UTF-8" standalone="no"?>
<!-- Generator: Adobe Illustrator 16.0.0, SVG Export Plug-In . SVG Version: 6.00 Build 0)  -->

<svg
   xmlns:dc="http://purl.org/dc/elements/1.1/"
   xmlns:cc="http://creativecommons.org/ns#"
   xmlns:rdf="http://www.w3.org/1999/02/22-rdf-syntax-ns#"
   xmlns:svg="http://www.w3.org/2000/svg"
   xmlns="http://www.w3.org/2000/svg"
   xmlns:sodipodi="http://sodipodi.sourceforge.net/DTD/sodipodi-0.dtd"
   xmlns:inkscape="http://www.inkscape.org/namespaces/inkscape"
   version="1.1"
   id="Layer_1"
   x="0px"
   y="0px"
   width="100px"
   height="100px"
   viewBox="0 0 100 100"
   enable-background="new 0 0 100 100"
   xml:space="preserve"
   inkscape:version="0.48.3.1 r9886"
   sodipodi:docname="Phishing.svg"><metadata
   id="metadata15"><rdf:RDF><cc:Work
       rdf:about=""><dc:format>image/svg+xml</dc:format><dc:type
         rdf:resource="http://purl.org/dc/dcmitype/StillImage" /></cc:Work></rdf:RDF></metadata><defs
   id="defs13" /><sodipodi:namedview
   pagecolor="#ffffff"
   bordercolor="#666666"
   borderopacity="1"
   objecttolerance="10"
   gridtolerance="10"
   guidetolerance="10"
   inkscape:pageopacity="0"
   inkscape:pageshadow="2"
   inkscape:window-width="736"
   inkscape:window-height="480"
   id="namedview11"
   showgrid="false"
   inkscape:zoom="2.36"
   inkscape:cx="50"
   inkscape:cy="50"
   inkscape:window-x="0"
   inkscape:window-y="0"
   inkscape:window-maximized="0"
   inkscape:current-layer="Layer_1" />
<path
   d="M94.909,6.256h-84.09c-1.104,0-2,0.896-2,2v84.09c0,1.104,0.896,2,2,2h84.09c1.104,0,2-0.896,2-2V8.256  C96.909,7.152,96.014,6.256,94.909,6.256z M85.442,84.965H24.619c-0.361,0-0.704-0.159-0.938-0.434  c-0.234-0.275-0.335-0.64-0.276-0.996l4.721-28.605c0.034-0.75,0.185-7.899-5.989-10.867c-0.431-0.208-0.703-0.646-0.697-1.125  c0.006-0.479,0.289-0.91,0.725-1.105l2.516-1.132c-2.198-0.838-4.771-2.288-5.453-4.615c-0.577-1.968,0.279-4.062,2.545-6.224  c0.375-0.437,2.147-2.298,6.766-4.529c-0.037-1.388-0.268-3.755-1.082-5.139c-0.075-0.127-0.126-0.266-0.151-0.411  c-0.026-0.148-0.614-3.651,1.26-5.883c0.672-0.801,1.944-1.755,4.183-1.755c0.831,0,1.758,0.131,2.757,0.389  c0.146,0.038,0.285,0.102,0.407,0.19c0,0,0.659,0.434,1.614,0.434c1.303,0,2.582-0.777,3.8-2.31  c0.437-0.866,1.575-2.141,3.472-2.141c2.154,0,4.557,1.61,7.346,4.921l2.47,2.964c0.737-0.086,1.983-0.2,3.417-0.2  c4.755,0,7.921,1.263,9.157,3.654c1.041,2.014,0.696,4.585-1.062,7.809c0.783-0.159,1.639-0.272,2.499-0.272  c2.791,0,4.254,1.202,4.991,2.21c1.651,2.26,1.624,5.959-0.084,11.308c-0.738,2.313-1.945,6.807-2.35,8.329  c2.241,3.549,15.759,25.349,15.491,34.342C86.652,84.437,86.107,84.965,85.442,84.965z"
   id="path3"
   style="fill:#ffffff;fill-opacity:1" />
<path
   d="M45.067,42.678h-7.365c0,0,2.505,2.168,5.289,2.168C42.991,44.846,45.067,44.626,45.067,42.678z"
   id="path5" />
<path
   d="M68.664,49.322c0.065-0.248,1.611-6.11,2.523-8.968c1.784-5.586,1.225-8.037,0.441-9.109  c-0.59-0.808-1.573-1.201-3.004-1.201c-2.323,0-4.788,1.08-4.812,1.091c-0.506,0.225-1.1,0.083-1.451-0.345  c-0.351-0.429-0.372-1.039-0.052-1.49c2.607-3.677,3.539-6.486,2.693-8.122c-0.774-1.499-3.25-2.324-6.972-2.324  c-2.062,0-3.717,0.26-3.733,0.263c-0.43,0.069-0.861-0.094-1.139-0.427l-2.9-3.479c-2.96-3.516-4.692-4.042-5.46-4.042  c-0.914,0-1.285,0.807-1.288,0.815c-0.042,0.096-0.095,0.187-0.16,0.271c-2.159,2.781-4.359,3.365-5.825,3.365  c-1.365,0-2.38-0.49-2.818-0.747c-2.048-0.498-3.487-0.302-4.255,0.606c-0.869,1.029-0.854,2.859-0.753,3.692  c1.424,2.659,1.303,6.805,1.297,6.985c-0.016,0.465-0.292,0.881-0.713,1.076c-5.01,2.313-6.645,4.235-6.661,4.254  c-0.031,0.038-0.072,0.083-0.108,0.116c-1.085,1.026-2.302,2.518-1.927,3.794c0.366,1.248,2.024,2.222,3.68,2.885  c-0.168-0.087-0.337-0.173-0.493-0.27c-1.531-0.961-2.416-2.338-2.63-4.091c-0.082-0.674,0.398-1.288,1.073-1.37  c0.673-0.081,1.288,0.398,1.37,1.073c0.123,1.009,0.598,1.741,1.495,2.305c5.372,3.372,22.27-1.254,28.328-3.32  c0.643-0.221,1.343,0.125,1.561,0.767c0.22,0.643-0.124,1.342-0.767,1.561c-0.712,0.243-13.674,4.617-23.104,4.617  c-1.224,0-2.383-0.08-3.454-0.245c0.434,0.155,0.757,0.53,0.813,0.999c0.013,0.111,0.002,0.22-0.014,0.327  c22.37,3.323,34.145-9.089,34.145-9.089c5.428-1.589,7.131-0.903,7.516,1.113c2.367,12.388-33.404,19.903-33.404,19.903l1.67,7.516  c3.956,8.843,1.279,18.974,0.149,22.43h44.644c-0.963-9.648-15.197-31.973-15.347-32.207C68.632,50.009,68.577,49.655,68.664,49.322  z M30.604,30.665v-3.436c0,0,16.117-0.14,24.204-7.655l1.406,2.784C56.213,22.357,50.646,30.761,30.604,30.665z"
   id="path7"
   style="fill:#ffffff;fill-opacity:1" />
<path
   d="M54.808,42.678h-7.365c0,0,2.506,2.168,5.289,2.168C52.731,44.846,54.808,44.626,54.808,42.678z"
   id="path9" />
</svg>