<?xml version="1.0" encoding="UTF-8" standalone="no"?>
<!-- Generator: Adobe Illustrator 16.0.0, SVG Export Plug-In . SVG Version: 6.00 Build 0)  -->

<svg
   xmlns:dc="http://purl.org/dc/elements/1.1/"
   xmlns:cc="http://creativecommons.org/ns#"
   xmlns:rdf="http://www.w3.org/1999/02/22-rdf-syntax-ns#"
   xmlns:svg="http://www.w3.org/2000/svg"
   xmlns="http://www.w3.org/2000/svg"
   xmlns:xlink="http://www.w3.org/1999/xlink"
   xmlns:sodipodi="http://sodipodi.sourceforge.net/DTD/sodipodi-0.dtd"
   xmlns:inkscape="http://www.inkscape.org/namespaces/inkscape"
   version="1.1"
   id="Layer_1"
   x="0px"
   y="0px"
   width="48px"
   height="48px"
   viewBox="0 0 48 48"
   enable-background="new 0 0 48 48"
   xml:space="preserve"
   inkscape:version="0.48.3.1 r9886"
   sodipodi:docname="Intrusions.svg"><metadata
   id="metadata15"><rdf:RDF><cc:Work
       rdf:about=""><dc:format>image/svg+xml</dc:format><dc:type
         rdf:resource="http://purl.org/dc/dcmitype/StillImage" /></cc:Work></rdf:RDF></metadata><defs
   id="defs13"><linearGradient
     inkscape:collect="always"
     id="linearGradient3760"><stop
       style="stop-color:#000000;stop-opacity:1;"
       offset="0"
       id="stop3762" /><stop
       style="stop-color:#000000;stop-opacity:0;"
       offset="1"
       id="stop3764" /></linearGradient><linearGradient
     inkscape:collect="always"
     xlink:href="#linearGradient3760"
     id="linearGradient3766"
     x1="2.128"
     y1="24.215875"
     x2="45.871001"
     y2="24.215875"
     gradientUnits="userSpaceOnUse" /></defs><sodipodi:namedview
   pagecolor="#ffffff"
   bordercolor="#666666"
   borderopacity="1"
   objecttolerance="10"
   gridtolerance="10"
   guidetolerance="10"
   inkscape:pageopacity="0"
   inkscape:pageshadow="2"
   inkscape:window-width="736"
   inkscape:window-height="480"
   id="namedview11"
   showgrid="false"
   inkscape:zoom="4.9166667"
   inkscape:cx="24"
   inkscape:cy="24"
   inkscape:window-x="0"
   inkscape:window-y="0"
   inkscape:window-maximized="0"
   inkscape:current-layer="Layer_1" />
<g
   id="g3"
   style="fill-opacity:0.94117647;fill:#75757f">
	<path
   d="M44.114,7.671L24.746,1.623c-0.486-0.151-1.006-0.151-1.492,0L3.886,7.671c-1.045,0.326-1.758,1.294-1.758,2.39   c0,26.781,13.531,33.182,20.801,36.62c0.339,0.161,0.705,0.241,1.071,0.241s0.731-0.08,1.07-0.241   c7.27-3.438,20.801-9.839,20.801-36.62C45.872,8.966,45.159,7.998,44.114,7.671z M24,41.646   c-6.902-3.317-16.324-8.811-16.842-29.75L24,6.636l16.841,5.26C40.324,32.835,30.902,38.329,24,41.646z"
   id="path5"
   style="fill-opacity:0.94117647;fill:#75757f" />
	<path
   d="M10.003,13.987c0,6.185,1.609,11.054,3.783,14.804l17.043-17.043L24,9.615L10.003,13.987z"
   id="path7"
   style="fill-opacity:0.94117647;fill:#75757f" />
	<path
   d="M24,38.816c4.785-2.151,13.79-9.352,13.992-24.317l-19.89,19.89C20.397,36.677,22.64,38.102,24,38.816z"
   id="path9"
   style="fill-opacity:0.94117647;fill:#75757f" />
</g>
</svg>