<?xml version="1.0" encoding="UTF-8" standalone="no"?>
<!-- Generator: Adobe Illustrator 16.0.0, SVG Export Plug-In . SVG Version: 6.00 Build 0)  -->

<svg
   xmlns:dc="http://purl.org/dc/elements/1.1/"
   xmlns:cc="http://creativecommons.org/ns#"
   xmlns:rdf="http://www.w3.org/1999/02/22-rdf-syntax-ns#"
   xmlns:svg="http://www.w3.org/2000/svg"
   xmlns="http://www.w3.org/2000/svg"
   xmlns:sodipodi="http://sodipodi.sourceforge.net/DTD/sodipodi-0.dtd"
   xmlns:inkscape="http://www.inkscape.org/namespaces/inkscape"
   version="1.1"
   id="Layer_1"
   x="0px"
   y="0px"
   width="96px"
   height="96px"
   viewBox="0 0 96 96"
   enable-background="new 0 0 96 96"
   xml:space="preserve"
   inkscape:version="0.48.3.1 r9886"
   sodipodi:docname="EmailSpan.svg"><metadata
   id="metadata17"><rdf:RDF><cc:Work
       rdf:about=""><dc:format>image/svg+xml</dc:format><dc:type
         rdf:resource="http://purl.org/dc/dcmitype/StillImage" /></cc:Work></rdf:RDF></metadata><defs
   id="defs15" /><sodipodi:namedview
   pagecolor="#ffffff"
   bordercolor="#666666"
   borderopacity="1"
   objecttolerance="10"
   gridtolerance="10"
   guidetolerance="10"
   inkscape:pageopacity="0"
   inkscape:pageshadow="2"
   inkscape:window-width="736"
   inkscape:window-height="480"
   id="namedview13"
   showgrid="false"
   inkscape:zoom="2.4583333"
   inkscape:cx="48"
   inkscape:cy="48"
   inkscape:window-x="1540"
   inkscape:window-y="159"
   inkscape:window-maximized="0"
   inkscape:current-layer="Layer_1" />
<g
   id="g3"
   style="fill:#75757f;fill-opacity:0.94117647">
	<polygon
   points="0.863,11.792 3.455,11.792 38.689,38.662 73.926,11.792 76.518,11.792 76.518,7.595 0.861,7.595 0.863,7.596  "
   id="polygon5"
   style="fill:#75757f;fill-opacity:0.94117647" />
	<path
   d="M76.518,37.745V19.603h-2.57L38.689,46.49L3.432,19.603H0.863v42.957h42.584c0,14.274,11.57,25.846,25.846,25.846   c14.273,0,25.846-11.571,25.846-25.846C95.139,50.794,87.275,40.872,76.518,37.745z M69.293,83.642   c-11.625,0-21.084-9.458-21.084-21.083s9.459-21.083,21.084-21.083s21.082,9.458,21.082,21.083S80.918,83.642,69.293,83.642z"
   id="path7"
   style="fill:#75757f;fill-opacity:0.94117647" />
	<path
   d="M69.293,48.101c-7.973,0-14.459,6.486-14.459,14.458c0,2.789,0.797,5.395,2.17,7.606L76.898,50.27   C74.688,48.896,72.08,48.101,69.293,48.101z"
   id="path9"
   style="fill:#75757f;fill-opacity:0.94117647" />
	<path
   d="M61.688,74.848c2.211,1.374,4.816,2.169,7.605,2.169c7.973,0,14.461-6.486,14.461-14.458c0-2.789-0.797-5.395-2.172-7.606   L61.688,74.848z"
   id="path11"
   style="fill:#75757f;fill-opacity:0.94117647" />
</g>
</svg>