<?xml version="1.0" encoding="iso-8859-1"?>
<!-- Generator: Adobe Illustrator 16.0.4, SVG Export Plug-In . SVG Version: 6.00 Build 0)  -->
<!DOCTYPE svg PUBLIC "-//W3C//DTD SVG 1.1//EN" "http://www.w3.org/Graphics/SVG/1.1/DTD/svg11.dtd">
<svg version="1.1" id="Capa_1" xmlns="http://www.w3.org/2000/svg" xmlns:xlink="http://www.w3.org/1999/xlink" x="0px" y="0px"
	 width="40px" height="36.961px" viewBox="0 0 40 36.961" style="enable-background:new 0 0 40 36.961;" xml:space="preserve">
<g id="_x37_4._Messages">
	<g>
		<path d="M32,18V4c0-2.209-1.791-4-4-4H4C1.791,0,0,1.791,0,4v14c0,2.21,1.791,4,4,4h2v6c0,1.104,0.537,1.284,1.199,0.4L12,22h16
			C30.209,22,32,20.21,32,18z M4,18.001V4h24v14.001H4z M36,14h-2v4.012h2v9.983H18V24h-4v4.007c0,2.209,1.791,4,4,4h11.505
			L32.8,36.4c0.663,0.884,1.2,0.704,1.2-0.4v-3.993h2c2.209,0,4-1.791,4-4V18.001C40,15.791,38.209,14,36,14z"/>
	</g>
</g>
<g>
</g>
<g>
</g>
<g>
</g>
<g>
</g>
<g>
</g>
<g>
</g>
<g>
</g>
<g>
</g>
<g>
</g>
<g>
</g>
<g>
</g>
<g>
</g>
<g>
</g>
<g>
</g>
<g>
</g>
</svg>
