<?xml version="1.0" encoding="utf-8"?>
<!-- Generator: Adobe Illustrator 16.0.0, SVG Export Plug-In . SVG Version: 6.00 Build 0)  -->
<!DOCTYPE svg PUBLIC "-//W3C//DTD SVG 1.1//EN" "http://www.w3.org/Graphics/SVG/1.1/DTD/svg11.dtd">
<svg version="1.1" id="Layer_1" xmlns="http://www.w3.org/2000/svg" xmlns:xlink="http://www.w3.org/1999/xlink" x="0px" y="0px"
	 width="48px" height="48px" viewBox="0 0 48 48" enable-background="new 0 0 48 48" xml:space="preserve">
<g>
	<path d="M44.114,7.671L24.746,1.623c-0.486-0.151-1.006-0.151-1.492,0L3.886,7.671c-1.045,0.326-1.758,1.294-1.758,2.39
		c0,26.781,13.531,33.182,20.801,36.62c0.339,0.161,0.705,0.241,1.071,0.241s0.731-0.08,1.07-0.241
		c7.27-3.438,20.801-9.839,20.801-36.62C45.872,8.966,45.159,7.998,44.114,7.671z M24,41.646
		c-6.902-3.317-16.324-8.811-16.842-29.75L24,6.636l16.841,5.26C40.324,32.835,30.902,38.329,24,41.646z"/>
	<path d="M10.003,13.987c0,6.185,1.609,11.054,3.783,14.804l17.043-17.043L24,9.615L10.003,13.987z"/>
	<path d="M24,38.816c4.785-2.151,13.79-9.352,13.992-24.317l-19.89,19.89C20.397,36.677,22.64,38.102,24,38.816z"/>
</g>
</svg>
