<?xml version="1.0" encoding="iso-8859-1"?>
<!-- Generator: Adobe Illustrator 18.1.1, SVG Export Plug-In . SVG Version: 6.00 Build 0)  -->
<svg version="1.1" id="Capa_1" xmlns="http://www.w3.org/2000/svg" xmlns:xlink="http://www.w3.org/1999/xlink" x="0px" y="0px"
	 viewBox="0 0 404.662 404.662" style="enable-background:new 0 0 404.662 404.662;" xml:space="preserve">
<g>
	<path style="fill:#010002;" d="M316.859,193.237l22.931-22.931l-19.446-19.446c10.275-10.472,33.564-37.705,24.142-61.286
		c-9.308-23.283-45.808-34.107-111.306-33.027c0.883-2.082,2.041-4.075,3.497-5.907l8.735-11.033l-13.998,1.39
		c-7.685,0.764-15.138-1.844-20.448-7.154c-5.305-5.305-7.918-12.757-7.16-20.437l0.967-9.786l-9.129,3.658
		c-6.981,2.804-14.863,2.285-21.618-1.432L163.392,0l1.868,11.993c1.271,8.151-1.301,16.117-7.035,21.851
		c-3.312,3.312-7.56,5.633-12.298,6.713l-12.781,2.918l10.591,7.727c1.056,0.77,2.13,1.528,3.085,2.482
		c5.442,5.442,8.037,13.056,7.118,20.896l-0.883,7.5l7.5-0.877c11.713-1.378,22.972,5.209,26.917,17.131l3.186,9.684l11.958-13.085
		c6.826-6.826,16.128-10.376,24.9-9.505l10.388,1.032l-4.386-9.475c-1.259-2.733-1.951-5.597-2.196-8.479
		c79.079-1.557,97.94,15.186,102.075,25.496c6.265,15.663-10.758,37.561-21.469,48.457l-23.826-23.826l-24.064,24.064
		c-54.078-29.47-121.414-19.929-165.276,23.933c-54.382,54.382-54.382,142.871,0,197.247s142.871,54.382,197.247,0
		C341.252,318.625,349.671,247.613,316.859,193.237z"/>
</g>
<g>
</g>
<g>
</g>
<g>
</g>
<g>
</g>
<g>
</g>
<g>
</g>
<g>
</g>
<g>
</g>
<g>
</g>
<g>
</g>
<g>
</g>
<g>
</g>
<g>
</g>
<g>
</g>
<g>
</g>
</svg>
