<?xml version="1.0" encoding="iso-8859-1"?>
<!-- Generator: Adobe Illustrator 16.0.0, SVG Export Plug-In . SVG Version: 6.00 Build 0)  -->
<!DOCTYPE svg PUBLIC "-//W3C//DTD SVG 1.1//EN" "http://www.w3.org/Graphics/SVG/1.1/DTD/svg11.dtd">
<svg version="1.1" id="Layer_1" xmlns="http://www.w3.org/2000/svg" xmlns:xlink="http://www.w3.org/1999/xlink" x="0px" y="0px"
	 width="20.927px" height="28.968px" viewBox="0 0 20.927 28.968" style="enable-background:new 0 0 20.927 28.968;"
	 xml:space="preserve">
<g>
	<polygon points="20.551,16.893 13.595,15.893 10.867,19.161 8.051,15.893 0.528,16.893 0,28.968 20.927,28.968 	" fill="#000000" />
	<path d="M10.74,14.782c4.082,0,7.391-3.31,7.391-7.392C18.131,3.31,14.822,0,10.74,0S3.35,3.31,3.35,7.391
		C3.35,11.472,6.658,14.782,10.74,14.782z M11.803,11.662h-2.43V9.348h2.43V11.662z M7.783,5.019
		c0.125-0.354,0.317-0.671,0.573-0.952c0.257-0.281,0.587-0.509,0.987-0.684c0.401-0.174,0.89-0.263,1.466-0.263
		c0.569,0,1.048,0.078,1.438,0.229c0.391,0.153,0.705,0.346,0.946,0.583c0.242,0.237,0.418,0.5,0.532,0.783
		c0.112,0.286,0.176,0.555,0.192,0.813c0,0.358-0.047,0.647-0.141,0.869c-0.094,0.223-0.215,0.408-0.368,0.557
		c-0.15,0.148-0.321,0.269-0.508,0.367c-0.188,0.099-0.378,0.196-0.572,0.297c-0.133,0.072-0.241,0.142-0.327,0.212
		c-0.085,0.069-0.151,0.145-0.199,0.221c-0.046,0.078-0.079,0.166-0.099,0.27c-0.02,0.101-0.029,0.217-0.029,0.349H9.514
		C9.506,8.554,9.501,8.406,9.501,8.227c0-0.187,0.023-0.379,0.07-0.573c0.047-0.193,0.13-0.385,0.246-0.572
		c0.116-0.188,0.287-0.343,0.513-0.468c0.094-0.047,0.203-0.096,0.328-0.151c0.124-0.055,0.242-0.117,0.357-0.182
		c0.111-0.067,0.207-0.146,0.285-0.241c0.078-0.092,0.117-0.204,0.117-0.336c0-0.398-0.226-0.596-0.678-0.596
		c-0.28,0-0.479,0.1-0.596,0.302C10.027,5.614,9.98,5.842,10.004,6.1H7.563C7.585,5.733,7.659,5.375,7.783,5.019z" fill="#000000" />
</g>
</svg>
