<?xml version="1.0" encoding="iso-8859-1"?>
<!-- Generator: Adobe Illustrator 18.1.1, SVG Export Plug-In . SVG Version: 6.00 Build 0)  -->
<svg version="1.1" id="Capa_1" xmlns="http://www.w3.org/2000/svg" xmlns:xlink="http://www.w3.org/1999/xlink" x="0px" y="0px"
	 viewBox="0 0 16 16" style="enable-background:new 0 0 16 16;" xml:space="preserve">
<g>
	<path style="fill:#030104;" d="M8,0C3.582,0,0,3.582,0,8s3.582,8,8,8s8-3.582,8-8S12.418,0,8,0z M9.23,13H6.88v-1.939h2.35V13z
		 M11.486,7.346c-0.199,0.241-0.584,0.55-1.151,0.927l-0.56,0.37c-0.305,0.2-0.508,0.436-0.607,0.705
		c-0.062,0.17-0.098,0.435-0.104,0.791H6.935C6.967,9.383,7.051,8.86,7.188,8.573c0.137-0.29,0.489-0.623,1.057-0.999L8.82,7.19
		l0.457-0.396c0.211-0.247,0.315-0.518,0.315-0.813c0-0.34-0.116-0.65-0.352-0.93c-0.233-0.28-0.661-0.42-1.281-0.42
		c-0.61,0-1.043,0.173-1.298,0.518C6.407,5.494,6.28,5.852,6.28,6.224H4c0.063-1.276,0.587-2.181,1.57-2.713
		C6.19,3.17,6.953,3,7.858,3c1.188,0,2.176,0.242,2.962,0.726C11.605,4.21,12,4.925,12,5.874C12,6.456,11.829,6.946,11.486,7.346z"
		/>
</g>
<g>
</g>
<g>
</g>
<g>
</g>
<g>
</g>
<g>
</g>
<g>
</g>
<g>
</g>
<g>
</g>
<g>
</g>
<g>
</g>
<g>
</g>
<g>
</g>
<g>
</g>
<g>
</g>
<g>
</g>
</svg>
