<?xml version="1.0" encoding="utf-8"?>
<!-- Generator: Adobe Illustrator 16.0.0, SVG Export Plug-In . SVG Version: 6.00 Build 0)  -->
<!DOCTYPE svg PUBLIC "-//W3C//DTD SVG 1.1//EN" "http://www.w3.org/Graphics/SVG/1.1/DTD/svg11.dtd">
<svg version="1.1" id="Layer_1" xmlns="http://www.w3.org/2000/svg" xmlns:xlink="http://www.w3.org/1999/xlink" x="0px" y="0px"
	 width="96px" height="96px" viewBox="0 0 96 96" enable-background="new 0 0 96 96" xml:space="preserve">
<g>
	<polygon points="0.863,11.792 3.455,11.792 38.689,38.662 73.926,11.792 76.518,11.792 76.518,7.595 0.861,7.595 0.863,7.596 	"/>
	<path d="M76.518,37.745V19.603h-2.57L38.689,46.49L3.432,19.603H0.863v42.957h42.584c0,14.274,11.57,25.846,25.846,25.846
		c14.273,0,25.846-11.571,25.846-25.846C95.139,50.794,87.275,40.872,76.518,37.745z M69.293,83.642
		c-11.625,0-21.084-9.458-21.084-21.083s9.459-21.083,21.084-21.083s21.082,9.458,21.082,21.083S80.918,83.642,69.293,83.642z"/>
	<path d="M69.293,48.101c-7.973,0-14.459,6.486-14.459,14.458c0,2.789,0.797,5.395,2.17,7.606L76.898,50.27
		C74.688,48.896,72.08,48.101,69.293,48.101z"/>
	<path d="M61.688,74.848c2.211,1.374,4.816,2.169,7.605,2.169c7.973,0,14.461-6.486,14.461-14.458c0-2.789-0.797-5.395-2.172-7.606
		L61.688,74.848z"/>
</g>
</svg>
